<svg width="9083" height="6782" viewBox="0 0 9083 6782" fill="none" xmlns="http://www.w3.org/2000/svg">
<rect width="9083" height="6782" rx="877" fill="#027FFE"/>
<path d="M2913.29 1971.2C2890.79 1974.18 2869.41 1986.51 2848.9 2008.45C2815.52 2044.33 2793.64 2097.56 2785.64 2162.84C2783.26 2182.47 2783.14 4678.3 2785.64 4696.72C2794.39 4763.35 2815.77 4816.3 2848.15 4851.52C2859.41 4863.57 2870.16 4871.83 2883.54 4878.74C2905.04 4889.98 2885.16 4889.03 3114.71 4889.03C3345.01 4889.03 3324.76 4889.98 3346.64 4878.33C3399.78 4850.03 3437.91 4773.37 3444.79 4680.87C3445.79 4668.14 3446.04 4295.31 3445.79 3417.59C3445.41 2250.05 3445.16 2171.5 3443.16 2158.37C3434.41 2101.21 3419.28 2059.91 3394.15 2024.7C3375.52 1998.69 3352.89 1981.22 3327.76 1973.64L3317.88 1970.53L3119.71 1970.39C3010.69 1970.25 2917.79 1970.66 2913.29 1971.2Z" fill="white"/>
<path d="M5776.81 1971.34C5761.68 1973.37 5745.3 1980.41 5731.67 1990.57C5723.42 1996.66 5708.42 2012.51 5700.04 2023.75C5674.03 2059.1 5655.03 2115.03 5650.28 2170.28C5649.28 2181.25 5649.03 2553.68 5649.28 3439.93L5649.65 4694.01L5652.4 4710.4C5653.9 4719.34 5656.9 4733.69 5658.91 4742.22C5674.16 4806.15 5706.92 4857.34 5745.92 4878.2C5767.93 4889.98 5747.68 4889.03 5974.73 4889.03C6199.4 4889.03 6181.4 4889.84 6201.28 4879.69C6215.03 4872.64 6224.91 4864.79 6237.28 4851.25C6269.17 4816.3 6290.17 4764.43 6298.8 4698.75C6300.92 4682.64 6301.05 4624.4 6301.05 3431.13C6301.05 2400.38 6300.8 2178 6299.42 2166.22C6295.05 2129.11 6286.67 2096.2 6274.17 2067.76C6249.29 2011.15 6213.15 1976.76 6172.77 1971.2C6160.27 1969.58 5788.93 1969.58 5776.81 1971.34Z" fill="white"/>
<path d="M2351.17 2466.87C2332.04 2472.29 2315.28 2483.53 2297.65 2502.76C2265.4 2537.84 2243.39 2591.88 2235.52 2655.8C2234.14 2666.9 2233.89 2805.04 2233.89 3431.81C2233.89 4161.64 2234.02 4194.95 2236.14 4209.85C2250.14 4306.01 2293.15 4375.08 2350.42 4392.95L2360.17 4396.07H2463.94C2560.96 4396.07 2568.22 4395.93 2575.84 4393.63C2612.85 4382.25 2644.86 4349.21 2666.99 4299.23C2679.49 4270.93 2687.37 4241.41 2692.37 4203.76C2693.74 4193.87 2693.99 4047.2 2693.99 3429.78C2693.99 2704.69 2693.87 2667.17 2691.74 2651.74C2684.24 2597.16 2667.99 2552.87 2642.73 2517.66C2623.85 2491.39 2598.6 2472.43 2574.34 2466.2C2567.72 2464.57 2549.96 2464.17 2463.32 2464.3C2366.17 2464.3 2359.67 2464.44 2351.17 2466.87Z" fill="white"/>
<path d="M6504.97 2466.87C6471.09 2476.76 6439.45 2509.13 6418.2 2555.58C6406.45 2581.31 6398.45 2608.53 6392.69 2642.93L6389.82 2659.86L6389.44 3420.3C6389.19 3976.51 6389.44 4184.93 6390.44 4196.31C6400.07 4303.03 6452.21 4385.37 6516.22 4395.39C6523.1 4396.47 6554.98 4396.74 6623 4396.47C6709.77 4395.93 6720.64 4395.66 6726.89 4393.63C6784.03 4374.94 6826.42 4306.68 6840.17 4211.21C6842.29 4196.31 6842.42 4159.2 6842.42 3429.78C6842.42 2702.93 6842.29 2663.11 6840.17 2648.35C6827.29 2557.75 6785.53 2488 6732.4 2468.5L6722.39 2464.84L6617.99 2464.57C6519.22 2464.3 6513.1 2464.44 6504.97 2466.87Z" fill="white"/>
<path d="M2140.12 2918.8C2102.36 2923.95 2062.48 2940.34 2029.6 2964.04C2009.22 2978.66 1996.34 2990.31 1978.21 3009.95C1915.07 3078.2 1869.93 3176.8 1848.93 3292.32C1835.93 3363.82 1833.43 3446.57 1842.05 3521.19C1865.31 3721.63 1964.46 3883.33 2092.11 3929.24C2114.49 3937.23 2144.37 3943.06 2163.38 3943.06H2168.25V3430.45V2917.85L2156.12 2917.99C2149.37 2918.13 2142.25 2918.53 2140.12 2918.8Z" fill="white"/>
<path d="M6908.06 3430.59V3943.46L6920.31 3942.51C6986.45 3937.5 7043.59 3906.62 7096.98 3847.31C7172.62 3763.07 7221.75 3632.11 7231.76 3488.01C7237.38 3407.16 7231.76 3331.32 7214.38 3255.62C7195.37 3172.33 7163.37 3099.33 7119.61 3039.74C7099.23 3011.98 7063.84 2977.31 7038.09 2959.57C7001.08 2934.38 6953.94 2917.85 6918.44 2917.85H6908.06V3430.59Z" fill="white"/>
<path d="M3498.55 3390.5V3784.6H4540.66H5582.76V3390.5V2996.4H4540.66H3498.55V3390.5Z" fill="white"/>
</svg>
